<svg width="120" height="120" viewBox="0 0 120 120" fill="none" xmlns="http://www.w3.org/2000/svg">
<g clip-path="url(#clip0_102_1706)">
<circle cx="60" cy="60" r="60" fill="#7188D9"/>
<path fill-rule="evenodd" clip-rule="evenodd" d="M48.5346 34.0054C48.7288 33.9911 48.9205 34.0058 49.1096 34.0495C49.3128 34.2618 49.5044 34.4822 49.6846 34.7106C49.4839 34.8004 49.2922 34.8885 49.1096 34.9751C48.9379 34.9633 48.7782 34.9927 48.6304 35.0633C47.8742 35.2657 47.1394 35.5008 46.4262 35.7685C45.1908 36.1277 43.977 36.5391 42.7845 37.0027C41.4334 37.5215 40.1236 38.1091 38.8553 38.7659C36.3654 39.8672 34.0653 41.2336 31.9553 42.8652C34.2161 41.8402 36.5161 40.8852 38.8553 40.0001C39.5862 39.8154 40.2889 39.5803 40.9637 39.2948C42.2067 38.9576 43.4526 38.6344 44.7012 38.3251C45.3795 38.1617 46.0504 38.0147 46.7137 37.8843C47.3346 37.7778 47.9416 37.6603 48.5346 37.5317C51.0883 37.2141 53.6439 36.9496 56.2013 36.7383C56.8425 36.7423 57.4814 36.7129 58.118 36.6501C58.7888 36.6501 59.4597 36.6501 60.1305 36.6501C60.6736 36.6501 61.2166 36.6501 61.7597 36.6501C62.4767 36.7376 63.2114 36.7669 63.9639 36.7383C64.0597 36.7383 64.1556 36.7383 64.2514 36.7383C66.0959 36.947 67.9488 37.1821 69.8098 37.4435C70.3762 37.5771 70.9512 37.6652 71.5348 37.708C72.1833 37.9012 72.8542 38.048 73.5473 38.1488C74.7771 38.4862 76.0229 38.8094 77.2849 39.1185C78.03 39.4158 78.7966 39.6803 79.5849 39.9119C79.9618 40.0471 80.3451 40.1647 80.7349 40.2646C82.729 41.079 84.7096 41.9165 86.6766 42.7771C85.062 41.5499 83.337 40.4773 81.5016 39.5593C80.9408 39.1984 80.3338 38.9046 79.6807 38.6777C78.3279 37.9675 76.9223 37.3503 75.464 36.8264C74.2321 36.3801 72.9862 35.9687 71.7265 35.5922C71.1503 35.3864 70.5753 35.1807 70.0015 34.9751C70.2542 34.6447 70.5417 34.3361 70.864 34.0495C71.1175 34.0056 71.3731 33.9909 71.6306 34.0054C72.2673 34.0834 72.9062 34.1422 73.5473 34.1817C74.1174 34.284 74.6924 34.3722 75.2723 34.4462C75.9705 34.5733 76.6732 34.7202 77.3807 34.887C77.5084 34.9163 77.6363 34.9458 77.764 34.9751C78.3569 35.1634 78.9639 35.3397 79.5849 35.5041C80.2089 35.7444 80.8478 35.9501 81.5016 36.1212C82.7964 36.6284 84.0741 37.1867 85.3349 37.7962C86.6395 38.4687 87.9173 39.174 89.1683 39.9119C89.3208 40.1 89.5124 40.2469 89.7433 40.3527C90.0681 40.5489 90.3077 40.8134 90.4621 41.1462C90.9037 42.0465 91.3668 42.9281 91.8517 43.7909C92.3966 44.9731 92.9396 46.1485 93.4809 47.3172C93.9621 48.4992 94.4413 49.6747 94.9184 50.8435C95.1254 51.4736 95.349 52.0907 95.5892 52.6948C95.7454 53.2724 95.9371 53.8307 96.1642 54.3698C96.5146 55.544 96.8659 56.7194 97.2184 57.8961C97.3807 58.4936 97.5405 59.0813 97.6976 59.6593C97.845 60.2895 98.0047 60.9066 98.1767 61.5106C98.2575 62.0887 98.3854 62.647 98.5601 63.1856C99.0476 65.9074 99.4469 68.6403 99.758 71.3843C99.9355 73.3499 100.015 75.3187 99.9976 77.2909C99.756 77.7639 99.4525 78.2047 99.0872 78.6132C98.3839 79.3336 97.6652 80.0388 96.9309 80.729C96.8351 80.7584 96.7711 80.8172 96.7392 80.9053C95.0353 82.2922 93.1506 83.4383 91.085 84.3435C90.376 84.6404 89.6733 84.9343 88.9766 85.2251C87.7718 85.6339 86.5579 85.9865 85.3349 86.283C84.639 86.3361 83.9681 86.4537 83.3224 86.6356C82.7432 86.6655 82.1682 86.7243 81.5974 86.8119C80.9247 86.8541 80.2539 86.9129 79.5849 86.9882C79.3103 87.0275 79.0707 86.9687 78.8661 86.8119C77.6255 85.379 76.3636 83.9685 75.0807 82.5803C74.9946 82.3683 74.8509 82.192 74.6494 82.0514C74.6031 81.9678 74.5872 81.8797 74.6015 81.7869C74.9778 81.7494 75.3292 81.6612 75.6557 81.5224C77.0236 81.1427 78.3333 80.6432 79.5849 80.0238C80.2423 79.766 80.8492 79.4427 81.4057 79.054C81.4697 79.054 81.5016 79.0247 81.5016 78.9659C82.5876 78.3647 83.6098 77.6742 84.5683 76.8942C85.3546 76.1416 86.1053 75.3629 86.8204 74.558C86.8843 74.4992 86.8843 74.4405 86.8204 74.3817C85.7204 75.0856 84.5863 75.7321 83.4183 76.3211C82.1609 76.8896 80.8831 77.4185 79.5849 77.908C78.1477 78.4268 76.7101 78.9264 75.2723 79.4067C74.7051 79.5757 74.1301 79.7227 73.5473 79.8474C72.8901 79.9982 72.2512 80.1745 71.6306 80.3764C70.3876 80.5915 69.1417 80.7972 67.8931 80.9935C67.2213 81.0752 66.5505 81.1634 65.8806 81.258C65.2373 81.2845 64.5985 81.3433 63.9639 81.4343C63.3257 81.4743 62.6868 81.5037 62.0472 81.5224C61.4083 81.5224 60.7695 81.5224 60.1305 81.5224C59.4597 81.5224 58.7888 81.5224 58.118 81.5224C57.7731 81.448 57.4217 81.4187 57.0638 81.4343C56.1531 81.3299 55.2267 81.2417 54.2846 81.1698C53.6406 81.1105 53.0017 81.0223 52.368 80.9053C51.0821 80.7041 49.8043 80.469 48.5346 80.2001C47.9357 80.0276 47.3288 79.8807 46.7137 79.7593C46.0463 79.5684 45.3755 79.3628 44.7012 79.1422C43.403 78.7799 42.1252 78.3685 40.8678 77.908C39.5466 77.3737 38.2369 76.8154 36.9386 76.233C35.8027 75.5997 34.6687 74.9533 33.5365 74.2935C34.8801 76.1903 36.621 77.7183 38.7595 78.8777C40.5821 80.0391 42.5627 80.9207 44.7012 81.5224C44.9308 81.593 45.1544 81.6811 45.372 81.7869C45.1754 82.0546 44.9837 82.319 44.797 82.5803C43.4883 84.0461 42.1786 85.5155 40.8678 86.9882C40.1966 86.9642 39.5258 86.9348 38.8553 86.9001C38.2236 86.7835 37.5847 86.7247 36.9386 86.7238C36.3231 86.5518 35.6843 86.4342 35.0219 86.3711C33.7274 86.0722 32.4497 85.7195 31.1886 85.3132C30.5578 85.061 29.9189 84.8259 29.2719 84.608C27.228 83.6387 25.3113 82.4926 23.5218 81.1698C23.426 81.0229 23.2982 80.9053 23.1385 80.8172C22.6593 80.3176 22.1482 79.8474 21.6052 79.4067C21.5093 79.2597 21.3815 79.1422 21.2218 79.054C20.8087 78.5404 20.4094 78.0115 20.0239 77.4672C19.9462 75.049 20.058 72.6394 20.3593 70.2382C20.4106 69.6491 20.4745 69.0613 20.551 68.4751C20.672 67.8907 20.7678 67.3029 20.8385 66.7119C21.4317 63.1431 22.2303 59.6168 23.2343 56.133C23.6725 54.9817 24.0559 53.8062 24.3843 52.6067C24.6439 52.0378 24.8675 51.45 25.0552 50.8435C25.5322 49.6747 26.0114 48.4992 26.4927 47.3172C26.7974 46.7553 27.0529 46.1676 27.2594 45.554C27.8833 44.4055 28.4583 43.2301 28.9844 42.0277C29.2533 41.5925 29.5248 41.1517 29.799 40.7054C30.2392 40.3492 30.7024 40.026 31.1886 39.7356C33.0624 38.5943 35.0111 37.5658 37.0345 36.6501C37.68 36.4821 38.2869 36.247 38.8553 35.9448C40.1672 35.5424 41.477 35.1604 42.7845 34.7988C43.4225 34.6815 44.0613 34.5639 44.7012 34.4462C45.3929 34.3717 46.0638 34.2542 46.7137 34.0935C47.3218 34.08 47.9287 34.0507 48.5346 34.0054Z" fill="white"/>
<path fill-rule="evenodd" clip-rule="evenodd" d="M45.8537 57.0031C50.4423 56.9089 53.148 58.9378 53.9706 63.0896C54.2051 66.0355 53.0364 68.373 50.4645 70.1023C47.0264 71.7054 44.0646 71.1614 41.5791 68.4704C39.7721 65.9868 39.5159 63.3698 40.8107 60.6197C41.9009 58.7025 43.5819 57.497 45.8537 57.0031Z" fill="#7188D9"/>
<path fill-rule="evenodd" clip-rule="evenodd" d="M70.8513 57.003C75.4322 56.9107 78.136 58.9396 78.963 63.0896C79.229 66.0544 78.061 68.392 75.4591 70.1024C72.0225 71.7053 69.0626 71.1614 66.5795 68.4705C64.8178 66.0563 64.5298 63.4982 65.7155 60.7961C66.7916 58.7917 68.5036 57.5273 70.8513 57.003Z" fill="#7188D9"/>
</g>
<defs>
<clipPath id="clip0_102_1706">
<rect width="120" height="120" fill="white"/>
</clipPath>
</defs>
</svg>
